{
    "asset" : {
        "generator" : "Khronos glTF Blender I/O v3.4.50",
        "version" : "2.0"
    },
    "scene" : 0,
    "scenes" : [
        {
            "name" : "Scene",
            "nodes" : [
                36
            ]
        }
    ],
    "nodes" : [
        {
            "name" : "Object_5",
            "rotation" : [
                -0.70710688829422,
                0,
                0,
                0.7071066498756409
            ]
        },
        {
            "name" : "TongueTip_06",
            "rotation" : [
                1.4372858458955307e-10,
                2.8336836729089127e-14,
                2.982011339247581e-13,
                1
            ],
            "translation" : [
                8.940696716308594e-07,
                1.6436692476272583,
                -2.6639559109753463e-06
            ]
        },
        {
            "children" : [
                1
            ],
            "name" : "TongueRoot_05",
            "rotation" : [
                0.7071070671081543,
                -3.240211583488417e-07,
                -1.504958362374964e-07,
                0.7071065902709961
            ],
            "translation" : [
                1.7018113140920832e-08,
                0.28027400374412537,
                0.18543826043605804
            ]
        },
        {
            "children" : [
                2
            ],
            "name" : "BeekDown_04",
            "rotation" : [
                1.5707934153397218e-07,
                -0.7071068286895752,
                -0.7071068286895752,
                5.338510078445324e-08
            ],
            "translation" : [
                -6.456049504777184e-06,
                14.27588176727295,
                6.115497589111328
            ]
        },
        {
            "name" : "BeekUp_07",
            "rotation" : [
                -3.398384862407511e-08,
                0.7071068286895752,
                -0.7071068286895752,
                1.3767879636361613e-07
            ],
            "translation" : [
                -6.456048595282482e-06,
                14.275879859924316,
                6.115497589111328
            ]
        },
        {
            "name" : "LeftBeekCorner_08",
            "rotation" : [
                -1.1342076078335595e-07,
                0.7071068286895752,
                -0.7071068286895752,
                2.219725132590611e-07
            ],
            "translation" : [
                4.895990371704102,
                14.297697067260742,
                5.935499668121338
            ]
        },
        {
            "name" : "RightBeekCorner_09",
            "rotation" : [
                -1.1342076078335595e-07,
                0.7071068286895752,
                -0.7071068286895752,
                2.219725132590611e-07
            ],
            "translation" : [
                -4.896005630493164,
                14.297699928283691,
                5.935497283935547
            ]
        },
        {
            "children" : [
                3,
                4,
                5,
                6
            ],
            "name" : "Beek_01",
            "rotation" : [
                3.3983823755079356e-08,
                -0.70710688829422,
                0.7071066498756409,
                1.3767878215276141e-07
            ],
            "translation" : [
                -1.4066598623685422e-06,
                1.879945993423462,
                9.5921630859375
            ]
        },
        {
            "name" : "LeftPupil_013",
            "rotation" : [
                -0.6848210096359253,
                1.3818344690719186e-08,
                -1.249772618727718e-09,
                0.7287113666534424
            ],
            "translation" : [
                -0.03621102124452591,
                3.6940226554870605,
                0.22962389886379242
            ]
        },
        {
            "children" : [
                8
            ],
            "name" : "LeftEye_012",
            "rotation" : [
                -0.5102778077125549,
                -0.48910051584243774,
                -0.5141060948371887,
                0.48589324951171875
            ],
            "scale" : [
                0.9999997615814209,
                0.9999997615814209,
                0.9999999403953552
            ],
            "translation" : [
                5.797715857625008e-06,
                2.9696078300476074,
                4.516914486885071e-08
            ]
        },
        {
            "name" : "LeftEyeLidDown_014",
            "rotation" : [
                -3.0825663088762667e-06,
                -3.3170001643156866e-06,
                -0.6848146915435791,
                0.7287172675132751
            ],
            "scale" : [
                1,
                0.9999999403953552,
                0.9999998807907104
            ],
            "translation" : [
                1.0308092832565308,
                3.033700466156006,
                -0.06834916770458221
            ]
        },
        {
            "name" : "LeftEyeLidUp_015",
            "rotation" : [
                -3.085156549786916e-06,
                -3.314314881208702e-06,
                -0.6848146915435791,
                0.7287172675132751
            ],
            "scale" : [
                1,
                0.9999999403953552,
                0.9999998807907104
            ],
            "translation" : [
                0.8466854691505432,
                3.0230660438537598,
                0.09199628233909607
            ]
        },
        {
            "children" : [
                9,
                10,
                11
            ],
            "name" : "LeftEyeScale_011",
            "rotation" : [
                0.7115787267684937,
                -0.7025972008705139,
                0.0024090770166367292,
                0.0026878833305090666
            ],
            "scale" : [
                1,
                0.9999998211860657,
                1.0000001192092896
            ],
            "translation" : [
                -0.006315009202808142,
                0.03874676302075386,
                0.0063230013474822044
            ]
        },
        {
            "name" : "RightPupil_018",
            "rotation" : [
                9.313541937672198e-09,
                3.809368820384407e-09,
                -3.0115643312456086e-09,
                1
            ],
            "translation" : [
                -0.03620992600917816,
                3.6939592361450195,
                -0.23060595989227295
            ]
        },
        {
            "children" : [
                13
            ],
            "name" : "RightEye_017",
            "rotation" : [
                0.5103034377098083,
                0.4890736937522888,
                -0.5141316056251526,
                0.4858662188053131
            ],
            "scale" : [
                0.9999999403953552,
                1,
                1.0000001192092896
            ],
            "translation" : [
                -1.094769686460495e-06,
                2.9911692142486572,
                2.991873770952225e-08
            ]
        },
        {
            "name" : "RightEyeLidDown_019",
            "rotation" : [
                3.542736976669403e-06,
                -3.39008511218708e-06,
                0.7288079261779785,
                0.6847181916236877
            ],
            "translation" : [
                1.0438053607940674,
                3.056347370147705,
                0.06263595074415207
            ]
        },
        {
            "name" : "RightEyeLidUp_020",
            "rotation" : [
                3.542727426975034e-06,
                -3.3900878406711854e-06,
                0.7288078665733337,
                0.6847182512283325
            ],
            "scale" : [
                1,
                0.9999999403953552,
                1
            ],
            "translation" : [
                0.8641300797462463,
                3.0451345443725586,
                -0.09199926257133484
            ]
        },
        {
            "children" : [
                14,
                15,
                16
            ],
            "name" : "RightEyeScale_016",
            "rotation" : [
                -0.0024093899410218,
                -0.0026875592302531004,
                -0.7115675806999207,
                0.7026084661483765
            ],
            "translation" : [
                -0.002931995550170541,
                0.038916513323783875,
                0.006317011080682278
            ]
        },
        {
            "children" : [
                12,
                17
            ],
            "name" : "Eyes_010",
            "rotation" : [
                0.7071068286895752,
                -2.0941556044817844e-08,
                8.275873852880977e-08,
                0.7071068286895752
            ],
            "translation" : [
                3.9345786717603914e-07,
                1.4589229822158813,
                -2.683037757873535
            ]
        },
        {
            "name" : "LeftEyebrownOut_022",
            "rotation" : [
                -4.039467427219279e-08,
                -4.819708365744191e-08,
                6.4176950497038705e-15,
                1
            ],
            "translation" : [
                -0.7200002670288086,
                4.248000144958496,
                -1.0156524181365967
            ]
        },
        {
            "children" : [
                19
            ],
            "name" : "LeftEyebrownIn_021",
            "rotation" : [
                0.70710688829422,
                -0.7071066498756409,
                -3.2745950306889426e-07,
                5.3385061704602776e-08
            ],
            "translation" : [
                -1.9439988136291504,
                5.003996849060059,
                -4.355990409851074
            ]
        },
        {
            "name" : "RightEyeBrowOut_024",
            "rotation" : [
                4.041936563226045e-08,
                -4.080986215626581e-08,
                -1.0509658701846666e-15,
                1
            ],
            "translation" : [
                0.7200012803077698,
                4.247995853424072,
                -1.0038107633590698
            ]
        },
        {
            "children" : [
                21
            ],
            "name" : "RightEyeBrowIn_023",
            "rotation" : [
                -0.70710688829422,
                -0.7071066498756409,
                -9.482472584920743e-09,
                3.9055981915225857e-07
            ],
            "translation" : [
                1.9440027475357056,
                5.003997802734375,
                -4.355992794036865
            ]
        },
        {
            "name" : "Wrinkles_025",
            "rotation" : [
                7.806674773291888e-08,
                -3.171280918635009e-22,
                -1.395942653733672e-14,
                1
            ],
            "translation" : [
                4.1799623318183876e-07,
                8.143096923828125,
                -2.8503577709198
            ]
        },
        {
            "children" : [
                7,
                18,
                20,
                22,
                23
            ],
            "name" : "Face_03",
            "rotation" : [
                -1.561335238875472e-07,
                -8.318465916090645e-09,
                5.7136492260558e-14,
                1
            ],
            "translation" : [
                1.5662445775888045e-06,
                1.486055612564087,
                -9.592162132263184
            ]
        },
        {
            "name" : "Tail_026",
            "rotation" : [
                -7.379095023907212e-08,
                -8.318465916090645e-09,
                3.580009823745539e-14,
                1
            ],
            "translation" : [
                -2.190631448684144e-06,
                -0.18814809620380402,
                13.41611385345459
            ]
        },
        {
            "name" : "Hair1_028",
            "rotation" : [
                7.731301820967929e-09,
                1.911946398766062e-23,
                -4.454608103015515e-15,
                1
            ],
            "translation" : [
                5.560258031778176e-08,
                12.248908042907715,
                -0.3791603147983551
            ]
        },
        {
            "name" : "Hair2_029",
            "rotation" : [
                6.1850386146034e-08,
                1.2436507028957051e-22,
                -3.686570973081456e-14,
                1
            ],
            "translation" : [
                -5.640166023113125e-07,
                10.905985832214355,
                3.8460912704467773
            ]
        },
        {
            "children" : [
                26,
                27
            ],
            "name" : "Up_027",
            "rotation" : [
                7.105427357601002e-15,
                -8.318465916090645e-09,
                -2.9872892730206673e-22,
                1
            ],
            "translation" : [
                7.913125788850707e-16,
                6.462005615234375,
                -5.684341886080802e-14
            ]
        },
        {
            "children" : [
                24,
                25,
                28
            ],
            "name" : "Middle_02",
            "rotation" : [
                1.0791365766477448e-14,
                -0.70710688829422,
                9.305817360726228e-15,
                0.7071066498756409
            ],
            "scale" : [
                1,
                0.9999998807907104,
                1
            ],
            "translation" : [
                -1.1368679706403456e-13,
                6.426004409790039,
                7.86986781623443e-16
            ]
        },
        {
            "children" : [
                29
            ],
            "name" : "Root_00",
            "rotation" : [
                0.7071066498756409,
                -4.281524543540624e-15,
                -0.70710688829422,
                7.427709735624989e-16
            ],
            "scale" : [
                0.9999998807907104,
                0.9999998807907104,
                0.9999999403953552
            ],
            "translation" : [
                6.670384459627615e-21,
                9.792003631591797,
                -3.410605131648481e-13
            ]
        },
        {
            "children" : [
                30
            ],
            "name" : "_rootJoint",
            "rotation" : [
                1,
                5.088690720462098e-16,
                7.574776361707336e-09,
                6.339203650895797e-08
            ]
        },
        {
            "mesh" : 0,
            "name" : "Object_6",
            "skin" : 0
        },
        {
            "children" : [
                0,
                32,
                31
            ],
            "name" : "Object_3"
        },
        {
            "children" : [
                33
            ],
            "name" : "RootNode"
        },
        {
            "children" : [
                34
            ],
            "name" : "Red.FBX",
            "rotation" : [
                0.70710688829422,
                0,
                0,
                0.7071066498756409
            ]
        },
        {
            "children" : [
                35
            ],
            "name" : "Sketchfab_model",
            "rotation" : [
                -0.70710688829422,
                0,
                0,
                0.7071066498756409
            ]
        }
    ],
    "materials" : [
        {
            "doubleSided" : true,
            "name" : "Material_55",
            "pbrMetallicRoughness" : {
                "baseColorTexture" : {
                    "index" : 0
                },
                "metallicFactor" : 0,
                "roughnessFactor" : 0.8929713368415833
            }
        }
    ],
    "meshes" : [
        {
            "name" : "Red_Material #55_0",
            "primitives" : [
                {
                    "attributes" : {
                        "POSITION" : 0,
                        "TEXCOORD_0" : 1,
                        "NORMAL" : 2,
                        "JOINTS_0" : 3,
                        "WEIGHTS_0" : 4
                    },
                    "indices" : 5,
                    "material" : 0
                }
            ]
        }
    ],
    "textures" : [
        {
            "sampler" : 0,
            "source" : 0
        }
    ],
    "images" : [
        {
            "bufferView" : 6,
            "mimeType" : "image/png",
            "name" : "Material_55_baseColor"
        }
    ],
    "skins" : [
        {
            "inverseBindMatrices" : 6,
            "joints" : [
                31,
                30,
                29,
                24,
                7,
                3,
                2,
                1,
                4,
                5,
                6,
                18,
                12,
                9,
                8,
                10,
                11,
                17,
                14,
                13,
                15,
                16,
                20,
                19,
                22,
                21,
                23,
                25,
                28,
                26,
                27
            ],
            "name" : "Object_3"
        }
    ],
    "accessors" : [
        {
            "bufferView" : 0,
            "componentType" : 5126,
            "count" : 1884,
            "max" : [
                20.32117462158203,
                19.783830642700195,
                15.136905670166016
            ],
            "min" : [
                -20.57490348815918,
                -15.463827133178711,
                -15.13705062866211
            ],
            "type" : "VEC3"
        },
        {
            "bufferView" : 1,
            "componentType" : 5126,
            "count" : 1884,
            "type" : "VEC2"
        },
        {
            "bufferView" : 2,
            "componentType" : 5126,
            "count" : 1884,
            "type" : "VEC3"
        },
        {
            "bufferView" : 3,
            "componentType" : 5121,
            "count" : 1884,
            "type" : "VEC4"
        },
        {
            "bufferView" : 4,
            "componentType" : 5126,
            "count" : 1884,
            "type" : "VEC4"
        },
        {
            "bufferView" : 5,
            "componentType" : 5123,
            "count" : 9258,
            "type" : "SCALAR"
        },
        {
            "bufferView" : 7,
            "componentType" : 5126,
            "count" : 31,
            "type" : "MAT4"
        }
    ],
    "bufferViews" : [
        {
            "buffer" : 0,
            "byteLength" : 22608,
            "byteOffset" : 0,
            "target" : 34962
        },
        {
            "buffer" : 0,
            "byteLength" : 15072,
            "byteOffset" : 22608,
            "target" : 34962
        },
        {
            "buffer" : 0,
            "byteLength" : 22608,
            "byteOffset" : 37680,
            "target" : 34962
        },
        {
            "buffer" : 0,
            "byteLength" : 7536,
            "byteOffset" : 60288,
            "target" : 34962
        },
        {
            "buffer" : 0,
            "byteLength" : 30144,
            "byteOffset" : 67824,
            "target" : 34962
        },
        {
            "buffer" : 0,
            "byteLength" : 18516,
            "byteOffset" : 97968,
            "target" : 34963
        },
        {
            "buffer" : 0,
            "byteLength" : 7725,
            "byteOffset" : 116484
        },
        {
            "buffer" : 0,
            "byteLength" : 1984,
            "byteOffset" : 124212
        }
    ],
    "samplers" : [
        {
            "magFilter" : 9729,
            "minFilter" : 9987
        }
    ],
    "buffers" : [
        {
            "byteLength" : 126196,
            "uri" : "data:application/octet-stream;base64,"
        }
    ]
}
