{
	"asset":{
		"generator":"Khronos glTF Blender I/O v3.5.30",
		"version":"2.0"
	},
	"scene":0,
	"scenes":[
		{
			"name":"Scene",
			"nodes":[
				0
			]
		}
	],
	"nodes":[
		{
			"mesh":0,
			"name":"12221_Cat_v1_l3",
			"rotation":[
				0,
				0.7071094512939453,
				0,
				0.7071041464805603
			],
			"scale":[
				2.9153048992156982,
				2.9153048992156982,
				2.9153048992156982
			],
			"translation":[
				0,
				-53.533119201660156,
				0
			]
		}
	],
	"materials":[
		{
			"doubleSided":true,
			"name":"Material",
			"pbrMetallicRoughness":{
				"baseColorFactor":[
					0.800000011920929,
					0.800000011920929,
					0.800000011920929,
					1
				],
				"metallicFactor":0,
				"roughnessFactor":0.5
			}
		}
	],
	"meshes":[
		{
			"name":"12221_Cat_v1_l3",
			"primitives":[
				{
					"attributes":{
						"POSITION":0,
						"NORMAL":1
					},
					"indices":2,
					"material":0
				}
			]
		}
	],
	"accessors":[
		{
			"bufferView":0,
			"componentType":5126,
			"count":3040,
			"max":[
				6.855381011962891,
				36.8883056640625,
				23.702606201171875
			],
			"min":[
				-6.855447769165039,
				-0.15349674224853516,
				-38.80982208251953
			],
			"type":"VEC3"
		},
		{
			"bufferView":1,
			"componentType":5126,
			"count":3040,
			"type":"VEC3"
		},
		{
			"bufferView":2,
			"componentType":5123,
			"count":4560,
			"type":"SCALAR"
		}
	],
	"bufferViews":[
		{
			"buffer":0,
			"byteLength":36480,
			"byteOffset":0,
			"target":34962
		},
		{
			"buffer":0,
			"byteLength":36480,
			"byteOffset":36480,
			"target":34962
		},
		{
			"buffer":0,
			"byteLength":9120,
			"byteOffset":72960,
			"target":34963
		}
	],
	"buffers":[
		{
			"byteLength":82080,
			"uri":"data:application/octet-stream;base64,"
		}
	]
}
